REM DIRINDEX 1\2\6,1\2\7,1\2\8,1\2\9,1\3\10,1\3\11,1\4\12,1\4\13,1\4\14,1\5\15,1\5\16,1\5\17
REM DIRNAME folder01,folder02,folder03,folder04,folder05,folder06,folder07,folder08,folder09,folder10,folder11,folder12,folder13,folder14,folder15,folder16,folder17
TITLE ""
FILE "1400_2_sec04_0301_0316.mp3" MP3
  TRACK 01 AUDIO
    TITLE "0:"
    INDEX 01 00:00:00
  TRACK 02 AUDIO
    TITLE "12:cjc029_2178"
    INDEX 01 00:03:25
  TRACK 03 AUDIO
    TITLE "0:"
    INDEX 01 00:05:14
  TRACK 04 AUDIO
    TITLE "12:cjc029_2179"
    INDEX 01 00:05:63
  TRACK 05 AUDIO
    TITLE "0:"
    INDEX 01 00:07:11
  TRACK 06 AUDIO
    TITLE "13:cjc029_2180"
    INDEX 01 00:08:13
  TRACK 07 AUDIO
    TITLE "0:"
    INDEX 01 00:09:24
  TRACK 08 AUDIO
    TITLE "14:cjc029_2181"
    INDEX 01 00:09:30
  TRACK 09 AUDIO
    TITLE "0:"
    INDEX 01 00:13:24
  TRACK 10 AUDIO
    TITLE "13:cjc029_2182"
    INDEX 01 00:14:07
  TRACK 11 AUDIO
    TITLE "0:"
    INDEX 01 00:15:25
  TRACK 12 AUDIO
    TITLE "14:cjc029_2183"
    INDEX 01 00:15:28
  TRACK 13 AUDIO
    TITLE "0:"
    INDEX 01 00:19:65
  TRACK 14 AUDIO
    TITLE "13:cjc029_2184"
    INDEX 01 00:20:45
  TRACK 15 AUDIO
    TITLE "0:"
    INDEX 01 00:21:60
  TRACK 16 AUDIO
    TITLE "14:cjc029_2185"
    INDEX 01 00:21:70
  TRACK 17 AUDIO
    TITLE "0:"
    INDEX 01 00:27:18
  TRACK 18 AUDIO
    TITLE "13:cjc029_2186"
    INDEX 01 00:28:02
  TRACK 19 AUDIO
    TITLE "0:"
    INDEX 01 00:29:21
  TRACK 20 AUDIO
    TITLE "14:cjc029_2187"
    INDEX 01 00:29:25
  TRACK 21 AUDIO
    TITLE "0:"
    INDEX 01 00:32:01
  TRACK 22 AUDIO
    TITLE "13:cjc029_2188"
    INDEX 01 00:32:58
  TRACK 23 AUDIO
    TITLE "0:"
    INDEX 01 00:33:71
  TRACK 24 AUDIO
    TITLE "14:cjc029_2189"
    INDEX 01 00:34:00
  TRACK 25 AUDIO
    TITLE "0:"
    INDEX 01 00:36:52
  TRACK 26 AUDIO
    TITLE "13:cjc029_2190"
    INDEX 01 00:37:40
  TRACK 27 AUDIO
    TITLE "0:"
    INDEX 01 00:38:73
  TRACK 28 AUDIO
    TITLE "14:cjc029_2191"
    INDEX 01 00:39:05
  TRACK 29 AUDIO
    TITLE "0:"
    INDEX 01 00:41:36
  TRACK 30 AUDIO
    TITLE "13:cjc029_2192"
    INDEX 01 00:42:19
  TRACK 31 AUDIO
    TITLE "0:"
    INDEX 01 00:43:39
  TRACK 32 AUDIO
    TITLE "14:cjc029_2193"
    INDEX 01 00:43:44
  TRACK 33 AUDIO
    TITLE "0:"
    INDEX 01 00:48:04
  TRACK 34 AUDIO
    TITLE "13:cjc029_2194"
    INDEX 01 00:48:59
  TRACK 35 AUDIO
    TITLE "0:"
    INDEX 01 00:50:03
  TRACK 36 AUDIO
    TITLE "14:cjc029_2195"
    INDEX 01 00:50:11
  TRACK 37 AUDIO
    TITLE "0:"
    INDEX 01 00:52:63
  TRACK 38 AUDIO
    TITLE "13:cjc029_2196"
    INDEX 01 00:53:49
  TRACK 39 AUDIO
    TITLE "0:"
    INDEX 01 00:54:52
  TRACK 40 AUDIO
    TITLE "14:cjc029_2197"
    INDEX 01 00:54:56
  TRACK 41 AUDIO
    TITLE "0:"
    INDEX 01 00:56:69
  TRACK 42 AUDIO
    TITLE "13:cjc029_2198"
    INDEX 01 00:57:52
  TRACK 43 AUDIO
    TITLE "0:"
    INDEX 01 00:59:12
  TRACK 44 AUDIO
    TITLE "14:cjc029_2199"
    INDEX 01 00:59:18
  TRACK 45 AUDIO
    TITLE "0:"
    INDEX 01 01:00:49
  TRACK 46 AUDIO
    TITLE "13:cjc029_2200"
    INDEX 01 01:01:33
  TRACK 47 AUDIO
    TITLE "0:"
    INDEX 01 01:02:57
  TRACK 48 AUDIO
    TITLE "14:cjc029_2201"
    INDEX 01 01:02:61
  TRACK 49 AUDIO
    TITLE "0:"
    INDEX 01 01:05:52
  TRACK 50 AUDIO
    TITLE "13:cjc029_2202"
    INDEX 01 01:06:36
  TRACK 51 AUDIO
    TITLE "0:"
    INDEX 01 01:07:49
  TRACK 52 AUDIO
    TITLE "14:cjc029_2203"
    INDEX 01 01:07:55
  TRACK 53 AUDIO
    TITLE "0:"
    INDEX 01 01:11:31
  TRACK 54 AUDIO
    TITLE "13:cjc029_2204"
    INDEX 01 01:12:13
  TRACK 55 AUDIO
    TITLE "0:"
    INDEX 01 01:13:45
  TRACK 56 AUDIO
    TITLE "14:cjc029_2205"
    INDEX 01 01:13:51
  TRACK 57 AUDIO
    TITLE "0:"
    INDEX 01 01:16:26
  TRACK 58 AUDIO
    TITLE "13:cjc029_2206"
    INDEX 01 01:17:08
  TRACK 59 AUDIO
    TITLE "0:"
    INDEX 01 01:18:11
  TRACK 60 AUDIO
    TITLE "14:cjc029_2207"
    INDEX 01 01:18:19
  TRACK 61 AUDIO
    TITLE "0:"
    INDEX 01 01:20:59
  TRACK 62 AUDIO
    TITLE "13:cjc029_2208"
    INDEX 01 01:21:37
  TRACK 63 AUDIO
    TITLE "0:"
    INDEX 01 01:22:56
  TRACK 64 AUDIO
    TITLE "14:cjc029_2209"
    INDEX 01 01:22:60
  TRACK 65 AUDIO
    TITLE "0:"
    INDEX 01 01:28:43
  TRACK 66 AUDIO
    TITLE "13:cjc029_2210"
    INDEX 01 01:29:25
  TRACK 67 AUDIO
    TITLE "0:"
    INDEX 01 01:30:48
  TRACK 68 AUDIO
    TITLE "14:cjc029_2211"
    INDEX 01 01:30:56
  TRACK 69 AUDIO
    TITLE "0:"
    INDEX 01 01:34:73
